# xmcd
#
# Track frame offsets:
#	150
#	5665
#	16770
#	26302
#	32257
#	39392
#	44815
#	53065
#	61882
#	69310
#	71692
#	79040
#	82610
#	87025
#	98677
#	110320
#	114770
#	122225
#	127482
#	137760
#	149545
#	156100
#	164395
#	173335
#	178117
#	190980
#	198207
#	202695
#	210092
#	214890
#
# Disc length: 2975 seconds
#
# Revision: 1
# Processed by: cddbd v1.4PL0 Copyright (c) Steve Scherf et al.
# Submitted via: audiograbber 1.81.03
#
DISCID=840b9d1e
DTITLE=Blue Sky Boys - On Radio - Volume 2
DYEAR=1946
DGENRE=Country
TTITLE0=Opening and Theme
TTITLE1=Were You There
TTITLE2=Bury Me Beneath The Willow
TTITLE3=Comedy 1
TTITLE4=Oh Sister Mary, Don't You Weep
TTITLE5=Whistlin' Rufus
TTITLE6=Shake My Mother's Hand For Me
TTITLE7=As Long As I Live
TTITLE8=Advertisement 1
TTITLE9=Comedy 2
TTITLE10=I Believe It For My Mother Told Me So
TTITLE11=Comedy 3
TTITLE12=Arkansas Traveler
TTITLE13=Watching You
TTITLE14=Goodbye Maggie
TTITLE15=Comedy 4
TTITLE16=Turn Your Radio On
TTITLE17=Golden Slippers
TTITLE18=Where We'll Never Grow Old
TTITLE19=Speak To Me, Little Darling
TTITLE20=Advertisement 2
TTITLE21=Drifting Too Far From The Shore
TTITLE22=Black Mountain Blues
TTITLE23=Comedy 5
TTITLE24=Where The Soul Never Dies
TTITLE25=Get Along Home, Cindy
TTITLE26=Comedy 6
TTITLE27=I'll Be Listening
TTITLE28=Sourwood Mountain
TTITLE29=Closing and Theme
EXTD=Copper Creek CCCD-0121 - 1993\nRecorded 1946-47 for WGST Atlanta
EXTT0=
EXTT1=
EXTT2=
EXTT3=
EXTT4=
EXTT5=
EXTT6=
EXTT7=
EXTT8=
EXTT9=
EXTT10=
EXTT11=
EXTT12=
EXTT13=
EXTT14=
EXTT15=
EXTT16=
EXTT17=
EXTT18=
EXTT19=
EXTT20=
EXTT21=
EXTT22=
EXTT23=
EXTT24=
EXTT25=
EXTT26=
EXTT27=
EXTT28=
EXTT29=
PLAYORDER=
